<?xml version="1.0" encoding="UTF-8"?>
<svg id="Layer_1" xmlns="http://www.w3.org/2000/svg" version="1.1" viewBox="0 0 100 100">
  <!-- Generator: Adobe Illustrator 29.0.0, SVG Export Plug-In . SVG Version: 2.1.0 Build 186)  -->
  <defs>
    <style>
      .st0 {
        fill: #fff;
      }

      .st1 {
        fill: none;
        stroke: #fff;
        stroke-miterlimit: 10;
      }

      .st2 {
        fill: #10b981;
      }
    </style>
  </defs>
  <circle class="st2" cx="50" cy="50" r="50"/>
  <g>
    <path class="st0" d="M31.7,23.2c0-.4.4-.7.8-.7h19.3c5.8,0,10.3,1.4,13.4,4.1s4.7,6.8,4.7,12.2-1.6,9.4-4.7,12.2c-3.1,2.8-7.6,4.1-13.5,4.1h-7.3v15c0,.4-.3.7-.7.7h-11.3c-.4,0-.7-.3-.7-.7V23.2h0ZM50.3,45.9c2.7,0,4.5-.6,5.5-1.7,1-1.2,1.5-3,1.5-5.5s-.5-4.2-1.5-5.4c-1-1.1-2.8-1.7-5.5-1.7h-5.8v14.3s5.8,0,5.8,0Z"/>
    <path class="st1" d="M37,29.9c0-.4.4-.7.8-.7h19.3c5.8,0,10.3,1.4,13.4,4.1s4.7,6.8,4.7,12.2-1.6,9.4-4.7,12.2c-3.1,2.8-7.6,4.1-13.5,4.1h-7.3s0,15,0,15c0,.4-.3.7-.7.7h-11.3c-.4,0-.7-.3-.7-.7V29.9h0Z"/>
  </g>
</svg>